<mxfile host="app.diagrams.net" modified="2023-01-08T06:17:28.245Z" agent="5.0 (Macintosh; Intel Mac OS X 10_15_7) AppleWebKit/537.36 (KHTML, like Gecko) Chrome/108.0.0.0 Safari/537.36" version="20.7.4" etag="rXbRwKJjkzcv7Qji04K2" type="github">
  <diagram id="haWod4DqGqJC2ygCSiER" name="Page-1">
    <mxGraphModel dx="1105" dy="531" grid="1" gridSize="10" guides="1" tooltips="1" connect="1" arrows="1" fold="1" page="1" pageScale="1" pageWidth="827" pageHeight="1169" math="0" shadow="0">
      <root>
        <mxCell id="0" />
        <mxCell id="1" parent="0" />
        <mxCell id="-Tbklhz2Qt_E8gcs13RY-27" style="edgeStyle=orthogonalEdgeStyle;rounded=0;orthogonalLoop=1;jettySize=auto;html=1;entryX=0.5;entryY=0;entryDx=0;entryDy=0;" edge="1" parent="1" source="-Tbklhz2Qt_E8gcs13RY-1" target="-Tbklhz2Qt_E8gcs13RY-26">
          <mxGeometry relative="1" as="geometry" />
        </mxCell>
        <mxCell id="-Tbklhz2Qt_E8gcs13RY-1" value="!5" style="strokeWidth=2;html=1;shape=mxgraph.flowchart.start_1;whiteSpace=wrap;" vertex="1" parent="1">
          <mxGeometry x="210" y="40" width="100" height="20" as="geometry" />
        </mxCell>
        <mxCell id="-Tbklhz2Qt_E8gcs13RY-37" style="edgeStyle=orthogonalEdgeStyle;rounded=0;orthogonalLoop=1;jettySize=auto;html=1;entryX=0.5;entryY=0;entryDx=0;entryDy=0;entryPerimeter=0;" edge="1" parent="1" source="-Tbklhz2Qt_E8gcs13RY-2" target="-Tbklhz2Qt_E8gcs13RY-5">
          <mxGeometry relative="1" as="geometry" />
        </mxCell>
        <mxCell id="-Tbklhz2Qt_E8gcs13RY-2" value="&lt;div style=&quot;background-color: rgb(255, 255, 255); font-family: &amp;quot;JetBrains Mono&amp;quot;, monospace; font-size: 9pt;&quot;&gt;&lt;pre&gt;p.ParseProgram&lt;/pre&gt;&lt;/div&gt;" style="rounded=1;whiteSpace=wrap;html=1;absoluteArcSize=1;arcSize=14;strokeWidth=2;" vertex="1" parent="1">
          <mxGeometry x="185" y="180" width="150" height="20" as="geometry" />
        </mxCell>
        <mxCell id="-Tbklhz2Qt_E8gcs13RY-3" value="&lt;div style=&quot;background-color: rgb(255, 255, 255); font-family: &amp;quot;JetBrains Mono&amp;quot;, monospace; font-size: 9pt;&quot;&gt;&lt;pre&gt;checkParserErrors&lt;/pre&gt;&lt;/div&gt;" style="rounded=1;whiteSpace=wrap;html=1;absoluteArcSize=1;arcSize=14;strokeWidth=2;" vertex="1" parent="1">
          <mxGeometry x="610" y="130" width="177.5" height="20" as="geometry" />
        </mxCell>
        <mxCell id="-Tbklhz2Qt_E8gcs13RY-14" style="edgeStyle=orthogonalEdgeStyle;rounded=0;orthogonalLoop=1;jettySize=auto;html=1;entryX=0.5;entryY=0;entryDx=0;entryDy=0;exitX=1;exitY=0.5;exitDx=0;exitDy=0;exitPerimeter=0;" edge="1" parent="1" source="-Tbklhz2Qt_E8gcs13RY-5" target="-Tbklhz2Qt_E8gcs13RY-6">
          <mxGeometry relative="1" as="geometry" />
        </mxCell>
        <mxCell id="-Tbklhz2Qt_E8gcs13RY-15" value="!=EOF" style="edgeLabel;html=1;align=center;verticalAlign=middle;resizable=0;points=[];" vertex="1" connectable="0" parent="-Tbklhz2Qt_E8gcs13RY-14">
          <mxGeometry x="0.1752" y="-1" relative="1" as="geometry">
            <mxPoint x="1" as="offset" />
          </mxGeometry>
        </mxCell>
        <mxCell id="-Tbklhz2Qt_E8gcs13RY-5" value="p.curToken.Type" style="strokeWidth=2;html=1;shape=mxgraph.flowchart.decision;whiteSpace=wrap;" vertex="1" parent="1">
          <mxGeometry x="190" y="230" width="140" height="50" as="geometry" />
        </mxCell>
        <mxCell id="-Tbklhz2Qt_E8gcs13RY-20" style="edgeStyle=orthogonalEdgeStyle;rounded=0;orthogonalLoop=1;jettySize=auto;html=1;entryX=0.5;entryY=0;entryDx=0;entryDy=0;" edge="1" parent="1" source="-Tbklhz2Qt_E8gcs13RY-6" target="-Tbklhz2Qt_E8gcs13RY-16">
          <mxGeometry relative="1" as="geometry" />
        </mxCell>
        <mxCell id="-Tbklhz2Qt_E8gcs13RY-23" value="&lt;div style=&quot;font-family: &amp;quot;JetBrains Mono&amp;quot;, monospace; font-size: 9pt;&quot;&gt;&lt;pre&gt;token.&lt;span style=&quot;color:#660e7a;font-weight:bold;font-style:italic;&quot;&gt;LET&lt;/span&gt;:&lt;/pre&gt;&lt;/div&gt;" style="edgeLabel;html=1;align=center;verticalAlign=middle;resizable=0;points=[];" vertex="1" connectable="0" parent="-Tbklhz2Qt_E8gcs13RY-20">
          <mxGeometry x="-0.2565" y="1" relative="1" as="geometry">
            <mxPoint as="offset" />
          </mxGeometry>
        </mxCell>
        <mxCell id="-Tbklhz2Qt_E8gcs13RY-21" style="edgeStyle=orthogonalEdgeStyle;rounded=0;orthogonalLoop=1;jettySize=auto;html=1;entryX=0.5;entryY=0;entryDx=0;entryDy=0;" edge="1" parent="1" source="-Tbklhz2Qt_E8gcs13RY-6" target="-Tbklhz2Qt_E8gcs13RY-17">
          <mxGeometry relative="1" as="geometry" />
        </mxCell>
        <mxCell id="-Tbklhz2Qt_E8gcs13RY-24" value="&lt;div style=&quot;font-family: &amp;quot;JetBrains Mono&amp;quot;, monospace; font-size: 9pt;&quot;&gt;&lt;pre&gt;token.&lt;span style=&quot;color:#660e7a;font-weight:bold;font-style:italic;&quot;&gt;RETURN&lt;/span&gt;:&lt;/pre&gt;&lt;/div&gt;" style="edgeLabel;html=1;align=center;verticalAlign=middle;resizable=0;points=[];" vertex="1" connectable="0" parent="-Tbklhz2Qt_E8gcs13RY-21">
          <mxGeometry x="-0.376" relative="1" as="geometry">
            <mxPoint as="offset" />
          </mxGeometry>
        </mxCell>
        <mxCell id="-Tbklhz2Qt_E8gcs13RY-22" style="edgeStyle=orthogonalEdgeStyle;rounded=0;orthogonalLoop=1;jettySize=auto;html=1;entryX=0.5;entryY=0;entryDx=0;entryDy=0;exitX=1;exitY=0.5;exitDx=0;exitDy=0;" edge="1" parent="1" source="-Tbklhz2Qt_E8gcs13RY-6" target="-Tbklhz2Qt_E8gcs13RY-19">
          <mxGeometry relative="1" as="geometry" />
        </mxCell>
        <mxCell id="-Tbklhz2Qt_E8gcs13RY-25" value="&lt;div style=&quot;font-family: &amp;quot;JetBrains Mono&amp;quot;, monospace; font-size: 9pt;&quot;&gt;&lt;pre&gt;&lt;span style=&quot;color:#000080;font-weight:bold;&quot;&gt;default&lt;/span&gt;:&lt;/pre&gt;&lt;/div&gt;" style="edgeLabel;html=1;align=center;verticalAlign=middle;resizable=0;points=[];" vertex="1" connectable="0" parent="-Tbklhz2Qt_E8gcs13RY-22">
          <mxGeometry x="-0.3914" y="2" relative="1" as="geometry">
            <mxPoint as="offset" />
          </mxGeometry>
        </mxCell>
        <mxCell id="-Tbklhz2Qt_E8gcs13RY-6" value="p.parseStatement()" style="rounded=1;whiteSpace=wrap;html=1;absoluteArcSize=1;arcSize=42;strokeWidth=2;" vertex="1" parent="1">
          <mxGeometry x="290" y="330" width="124" height="40" as="geometry" />
        </mxCell>
        <mxCell id="-Tbklhz2Qt_E8gcs13RY-16" value="&lt;div style=&quot;background-color: rgb(255, 255, 255); font-family: &amp;quot;JetBrains Mono&amp;quot;, monospace; font-size: 9pt;&quot;&gt;&lt;pre&gt;p.parseLetStatement()&lt;/pre&gt;&lt;/div&gt;" style="rounded=1;whiteSpace=wrap;html=1;absoluteArcSize=1;arcSize=14;strokeWidth=2;" vertex="1" parent="1">
          <mxGeometry x="60" y="420" width="190" height="20" as="geometry" />
        </mxCell>
        <mxCell id="-Tbklhz2Qt_E8gcs13RY-17" value="&lt;div style=&quot;background-color: rgb(255, 255, 255); font-family: &amp;quot;JetBrains Mono&amp;quot;, monospace; font-size: 9pt;&quot;&gt;&lt;pre&gt;p.parseReturnStatement()&lt;/pre&gt;&lt;/div&gt;" style="rounded=1;whiteSpace=wrap;html=1;absoluteArcSize=1;arcSize=14;strokeWidth=2;" vertex="1" parent="1">
          <mxGeometry x="249" y="470" width="206" height="20" as="geometry" />
        </mxCell>
        <mxCell id="-Tbklhz2Qt_E8gcs13RY-19" value="&lt;div style=&quot;background-color: rgb(255, 255, 255); font-family: &amp;quot;JetBrains Mono&amp;quot;, monospace; font-size: 9pt;&quot;&gt;&lt;pre&gt;p.parseExpressionStatement()&lt;/pre&gt;&lt;/div&gt;" style="rounded=1;whiteSpace=wrap;html=1;absoluteArcSize=1;arcSize=14;strokeWidth=2;" vertex="1" parent="1">
          <mxGeometry x="480" y="420" width="230" height="20" as="geometry" />
        </mxCell>
        <mxCell id="-Tbklhz2Qt_E8gcs13RY-35" style="edgeStyle=orthogonalEdgeStyle;rounded=0;orthogonalLoop=1;jettySize=auto;html=1;entryX=0.5;entryY=0;entryDx=0;entryDy=0;" edge="1" parent="1" source="-Tbklhz2Qt_E8gcs13RY-26" target="-Tbklhz2Qt_E8gcs13RY-31">
          <mxGeometry relative="1" as="geometry" />
        </mxCell>
        <mxCell id="-Tbklhz2Qt_E8gcs13RY-26" value="&lt;div style=&quot;background-color: rgb(255, 255, 255); font-family: &amp;quot;JetBrains Mono&amp;quot;, monospace; font-size: 9pt;&quot;&gt;&lt;pre&gt;l = lexer.New()&lt;/pre&gt;&lt;/div&gt;" style="rounded=1;whiteSpace=wrap;html=1;absoluteArcSize=1;arcSize=14;strokeWidth=2;" vertex="1" parent="1">
          <mxGeometry x="193.5" y="80" width="133" height="20" as="geometry" />
        </mxCell>
        <mxCell id="-Tbklhz2Qt_E8gcs13RY-36" style="edgeStyle=orthogonalEdgeStyle;rounded=0;orthogonalLoop=1;jettySize=auto;html=1;" edge="1" parent="1" source="-Tbklhz2Qt_E8gcs13RY-31" target="-Tbklhz2Qt_E8gcs13RY-2">
          <mxGeometry relative="1" as="geometry" />
        </mxCell>
        <mxCell id="-Tbklhz2Qt_E8gcs13RY-31" value="&lt;div style=&quot;background-color:#ffffff;color:#000000;font-family:&#39;JetBrains Mono&#39;,monospace;font-size:9.0pt;&quot;&gt;&lt;pre&gt;p := New(l)&lt;/pre&gt;&lt;/div&gt;" style="rounded=1;whiteSpace=wrap;html=1;absoluteArcSize=1;arcSize=14;strokeWidth=2;" vertex="1" parent="1">
          <mxGeometry x="193.5" y="130" width="133" height="20" as="geometry" />
        </mxCell>
      </root>
    </mxGraphModel>
  </diagram>
</mxfile>
